<?xml version="1.0" encoding="UTF-8"?>
<svg width="224px" height="55px" viewBox="0 0 224 55" version="1.1" xmlns="http://www.w3.org/2000/svg" xmlns:xlink="http://www.w3.org/1999/xlink">
    <!-- Generator: Sketch 53.1 (72631) - https://sketchapp.com -->
    <title>Artboard</title>
    <desc>Created with Sketch.</desc>
    <g id="Artboard" stroke="none" stroke-width="1" fill="none" fill-rule="evenodd">
        <path d="M72.6579,16.5828 L76.1999,16.5828 L84.6549,35.2818 L79.8239,35.2818 L78.1489,31.3198 L70.5979,31.3198 L68.9789,35.2818 L64.2569,35.2818 L72.6579,16.5828 Z M74.3049,22.0228 L71.9439,27.8338 L76.6929,27.8338 L74.3049,22.0228 Z M86.7688,16.5823 L91.0518,16.5823 L91.0518,31.4783 L98.9858,31.4783 L98.9858,35.2813 L86.7688,35.2813 L86.7688,16.5823 Z M119.0818,21.1517 C118.7338,20.7287 118.2628,20.4167 117.6678,20.2147 C117.0728,20.0117 116.5098,19.9107 115.9788,19.9107 C115.6678,19.9107 115.3478,19.9457 115.0188,20.0157 C114.6888,20.0867 114.3778,20.1967 114.0848,20.3457 C113.7918,20.4957 113.5538,20.6937 113.3718,20.9397 C113.1878,21.1867 113.0968,21.4857 113.0968,21.8387 C113.0968,22.4017 113.3168,22.8337 113.7558,23.1317 C114.1948,23.4317 114.7488,23.6867 115.4168,23.8987 C116.0838,24.1097 116.8028,24.3207 117.5718,24.5327 C118.3398,24.7437 119.0588,25.0437 119.7268,25.4297 C120.3948,25.8177 120.9488,26.3377 121.3878,26.9887 C121.8268,27.6397 122.0468,28.5107 122.0468,29.6027 C122.0468,30.6417 121.8448,31.5487 121.4428,32.3237 C121.0398,33.0977 120.4958,33.7407 119.8088,34.2517 C119.1228,34.7617 118.3268,35.1407 117.4208,35.3867 C116.5148,35.6327 115.5588,35.7567 114.5518,35.7567 C113.2888,35.7567 112.1178,35.5727 111.0378,35.2027 C109.9578,34.8327 108.9508,34.2337 108.0178,33.4067 L111.0648,30.1837 C111.5048,30.7487 112.0578,31.1837 112.7258,31.4917 C113.3948,31.7987 114.0848,31.9537 114.7988,31.9537 C115.1458,31.9537 115.4988,31.9147 115.8558,31.8347 C116.2128,31.7557 116.5328,31.6367 116.8168,31.4777 C117.1008,31.3197 117.3288,31.1177 117.5028,30.8707 C117.6768,30.6247 117.7638,30.3337 117.7638,29.9997 C117.7638,29.4357 117.5398,28.9917 117.0908,28.6657 C116.6428,28.3397 116.0798,28.0627 115.4028,27.8337 C114.7258,27.6047 113.9938,27.3767 113.2068,27.1467 C112.4188,26.9187 111.6868,26.6097 111.0098,26.2227 C110.3328,25.8357 109.7698,25.3247 109.3218,24.6907 C108.8728,24.0567 108.6488,23.2207 108.6488,22.1817 C108.6488,21.1777 108.8548,20.2977 109.2668,19.5407 C109.6788,18.7837 110.2278,18.1497 110.9138,17.6387 C111.6008,17.1287 112.3918,16.7457 113.2888,16.4897 C114.1858,16.2347 115.1098,16.1067 116.0618,16.1067 C117.1598,16.1067 118.2208,16.2567 119.2468,16.5557 C120.2708,16.8557 121.1958,17.3577 122.0198,18.0607 L119.0818,21.1517 Z M125.2307,16.5823 L129.5137,16.5823 L129.5137,23.5553 L137.8327,23.5553 L137.8327,16.5823 L142.1147,16.5823 L142.1147,35.2813 L137.8327,35.2813 L137.8327,27.1993 L129.5137,27.1993 L129.5137,35.2813 L125.2307,35.2813 L125.2307,16.5823 Z M149.4724,25.9319 C149.4724,26.8129 149.6144,27.6189 149.8984,28.3479 C150.1814,29.0789 150.5884,29.7129 151.1194,30.2499 C151.6504,30.7869 152.2864,31.2049 153.0274,31.5039 C153.7694,31.8039 154.5974,31.9529 155.5124,31.9529 C156.4274,31.9529 157.2564,31.8039 157.9974,31.5039 C158.7384,31.2049 159.3734,30.7869 159.9054,30.2499 C160.4354,29.7129 160.8434,29.0789 161.1264,28.3479 C161.4104,27.6189 161.5524,26.8129 161.5524,25.9319 C161.5524,25.0699 161.4104,24.2679 161.1264,23.5289 C160.8434,22.7889 160.4354,22.1509 159.9054,21.6139 C159.3734,21.0769 158.7384,20.6589 157.9974,20.3589 C157.2564,20.0599 156.4274,19.9109 155.5124,19.9109 C154.5974,19.9109 153.7694,20.0599 153.0274,20.3589 C152.2864,20.6589 151.6504,21.0769 151.1194,21.6139 C150.5884,22.1509 150.1814,22.7889 149.8984,23.5289 C149.6144,24.2679 149.4724,25.0699 149.4724,25.9319 Z M145.0254,25.9319 C145.0254,24.4349 145.2854,23.0789 145.8074,21.8649 C146.3294,20.6499 147.0564,19.6159 147.9904,18.7609 C148.9234,17.9079 150.0304,17.2509 151.3114,16.7929 C152.5934,16.3359 153.9934,16.1069 155.5124,16.1069 C157.0314,16.1069 158.4314,16.3359 159.7134,16.7929 C160.9934,17.2509 162.1014,17.9079 163.0354,18.7609 C163.9684,19.6159 164.6954,20.6499 165.2174,21.8649 C165.7394,23.0789 166.0004,24.4349 166.0004,25.9319 C166.0004,27.4289 165.7394,28.7849 165.2174,29.9989 C164.6954,31.2139 163.9684,32.2489 163.0354,33.1029 C162.1014,33.9569 160.9934,34.6129 159.7134,35.0709 C158.4314,35.5279 157.0314,35.7569 155.5124,35.7569 C153.9934,35.7569 152.5934,35.5279 151.3114,35.0709 C150.0304,34.6129 148.9234,33.9569 147.9904,33.1029 C147.0564,32.2489 146.3294,31.2139 145.8074,29.9989 C145.2854,28.7849 145.0254,27.4289 145.0254,25.9319 Z M176.9538,22.0228 L174.5928,27.8338 L179.3418,27.8338 L176.9538,22.0228 Z M175.3068,16.5828 L178.8478,16.5828 L187.3038,35.2818 L182.4718,35.2818 L180.7968,31.3198 L173.2468,31.3198 L171.6268,35.2818 L166.9058,35.2818 L175.3068,16.5828 Z M189.4177,16.5823 L193.7007,16.5823 L193.7007,31.4783 L201.6347,31.4783 L201.6347,35.2813 L189.4177,35.2813 L189.4177,16.5823 Z M212.0393,22.0228 L209.6783,27.8338 L214.4273,27.8338 L212.0393,22.0228 Z M210.3923,16.5828 L213.9343,16.5828 L222.3893,35.2818 L217.5583,35.2818 L215.8833,31.3198 L208.3323,31.3198 L206.7133,35.2818 L201.9913,35.2818 L210.3923,16.5828 Z" id="Al-Shoala" fill="#163963"></path>
        <path d="M65.2136,44.8353 L67.1686,44.8353 C67.6516,44.8353 68.0466,44.7773 68.3486,44.6613 C68.6506,44.5453 68.8856,44.4013 69.0536,44.2313 C69.2206,44.0623 69.3356,43.8773 69.3956,43.6813 C69.4556,43.4833 69.4856,43.3043 69.4856,43.1443 C69.4856,42.9823 69.4556,42.8033 69.3956,42.6063 C69.3356,42.4093 69.2206,42.2263 69.0536,42.0553 C68.8856,41.8863 68.6506,41.7423 68.3486,41.6263 C68.0466,41.5093 67.6516,41.4513 67.1686,41.4513 L65.2136,41.4513 L65.2136,44.8353 Z M64.2926,40.6453 L66.8896,40.6453 C67.0196,40.6453 67.1966,40.6493 67.4196,40.6583 C67.6436,40.6673 67.8846,40.6943 68.1466,40.7393 C68.4066,40.7843 68.6716,40.8563 68.9416,40.9543 C69.2116,41.0533 69.4536,41.1953 69.6686,41.3843 C69.8816,41.5713 70.0586,41.8093 70.1986,42.0963 C70.3376,42.3823 70.4076,42.7313 70.4076,43.1443 C70.4076,43.6003 70.3256,43.9763 70.1636,44.2723 C70.0006,44.5673 69.7956,44.8073 69.5486,44.9903 C69.3016,45.1743 69.0296,45.3113 68.7326,45.3993 C68.4346,45.4893 68.1506,45.5523 67.8806,45.5883 L70.7566,50.1543 L69.7096,50.1543 L66.9316,45.6423 L65.2136,45.6423 L65.2136,50.1543 L64.2926,50.1543 L64.2926,40.6453 Z M72.572,40.6448 L78.617,40.6448 L78.617,41.4518 L73.493,41.4518 L73.493,44.8348 L78.296,44.8348 L78.296,45.6418 L73.493,45.6418 L73.493,49.3488 L78.841,49.3488 L78.841,50.1548 L72.572,50.1548 L72.572,40.6448 Z M88.991,48.6644 C88.516,49.2824 87.967,49.7254 87.343,49.9934 C86.72,50.2624 86.045,50.3964 85.319,50.3964 C84.565,50.3964 83.874,50.2734 83.245,50.0264 C82.617,49.7804 82.08,49.4364 81.633,48.9924 C81.186,48.5504 80.837,48.0214 80.586,47.4084 C80.334,46.7954 80.209,46.1264 80.209,45.3994 C80.209,44.6744 80.334,44.0084 80.586,43.3984 C80.837,42.7894 81.186,42.2634 81.633,41.8204 C82.08,41.3774 82.617,41.0304 83.245,40.7794 C83.874,40.5284 84.565,40.4034 85.319,40.4034 C85.989,40.4034 86.615,40.5174 87.197,40.7464 C87.778,40.9744 88.288,41.3564 88.725,41.8934 L87.971,42.4994 C87.664,42.0514 87.271,41.7254 86.792,41.5184 C86.312,41.3124 85.822,41.2094 85.319,41.2094 C84.677,41.2094 84.097,41.3164 83.58,41.5314 C83.064,41.7464 82.624,42.0424 82.261,42.4184 C81.898,42.7944 81.618,43.2374 81.423,43.7484 C81.228,44.2584 81.13,44.8094 81.13,45.3994 C81.13,45.9904 81.228,46.5424 81.423,47.0524 C81.618,47.5624 81.898,48.0064 82.261,48.3824 C82.624,48.7584 83.064,49.0534 83.58,49.2684 C84.097,49.4824 84.677,49.5914 85.319,49.5914 C85.57,49.5914 85.83,49.5614 86.101,49.5034 C86.371,49.4454 86.634,49.3544 86.89,49.2344 C87.145,49.1144 87.39,48.9624 87.623,48.7784 C87.855,48.5954 88.06,48.3734 88.237,48.1124 L88.991,48.6644 Z M91.6013,44.8353 L93.5563,44.8353 C94.0393,44.8353 94.4333,44.7773 94.7353,44.6613 C95.0383,44.5453 95.2733,44.4013 95.4413,44.2313 C95.6083,44.0623 95.7223,43.8773 95.7833,43.6813 C95.8433,43.4833 95.8733,43.3043 95.8733,43.1443 C95.8733,42.9823 95.8433,42.8033 95.7833,42.6063 C95.7223,42.4093 95.6083,42.2263 95.4413,42.0553 C95.2733,41.8863 95.0383,41.7423 94.7353,41.6263 C94.4333,41.5093 94.0393,41.4513 93.5563,41.4513 L91.6013,41.4513 L91.6013,44.8353 Z M90.6803,40.6453 L93.2773,40.6453 C93.4073,40.6453 93.5833,40.6493 93.8073,40.6583 C94.0313,40.6673 94.2723,40.6943 94.5333,40.7393 C94.7943,40.7843 95.0593,40.8563 95.3293,40.9543 C95.5993,41.0533 95.8413,41.1953 96.0553,41.3843 C96.2693,41.5713 96.4463,41.8093 96.5853,42.0963 C96.7253,42.3823 96.7953,42.7313 96.7953,43.1443 C96.7953,43.6003 96.7133,43.9763 96.5513,44.2723 C96.3883,44.5673 96.1833,44.8073 95.9363,44.9903 C95.6893,45.1743 95.4173,45.3113 95.1203,45.3993 C94.8223,45.4893 94.5383,45.5523 94.2683,45.5883 L97.1443,50.1543 L96.0973,50.1543 L93.3183,45.6423 L91.6013,45.6423 L91.6013,50.1543 L90.6803,50.1543 L90.6803,40.6453 Z M105.9817,46.515 C105.9817,47.025 105.9217,47.513 105.8007,47.979 C105.6797,48.445 105.4777,48.857 105.1937,49.214 C104.9097,49.573 104.5367,49.859 104.0767,50.075 C103.6157,50.289 103.0497,50.397 102.3797,50.397 C101.7097,50.397 101.1447,50.289 100.6837,50.075 C100.2227,49.859 99.8507,49.573 99.5667,49.214 C99.2827,48.857 99.0807,48.445 98.9597,47.979 C98.8377,47.513 98.7777,47.025 98.7777,46.515 L98.7777,40.645 L99.6997,40.645 L99.6997,46.286 C99.6997,46.627 99.7317,46.99 99.7967,47.374 C99.8617,47.76 99.9897,48.118 100.1807,48.449 C100.3717,48.781 100.6417,49.053 100.9907,49.269 C101.3397,49.483 101.8027,49.591 102.3797,49.591 C102.9577,49.591 103.4197,49.483 103.7697,49.269 C104.1177,49.053 104.3877,48.781 104.5787,48.449 C104.7697,48.118 104.8977,47.76 104.9627,47.374 C105.0277,46.99 105.0607,46.627 105.0607,46.286 L105.0607,40.645 L105.9817,40.645 L105.9817,46.515 Z M108.509,50.1551 L108.509,40.6451 L109.43,40.6451 L109.43,50.1551 L108.509,50.1551 Z M114.3308,41.4515 L110.9528,41.4515 L110.9528,40.6445 L118.6308,40.6445 L118.6308,41.4515 L115.2528,41.4515 L115.2528,50.1545 L114.3308,50.1545 L114.3308,41.4515 Z M120.0554,40.6448 L121.4374,40.6448 L125.0394,48.6238 L128.6414,40.6448 L129.9544,40.6448 L129.9544,50.1548 L129.0334,50.1548 L129.0334,41.7738 L129.0054,41.7738 L125.2354,50.1548 L124.8304,50.1548 L121.0044,41.7738 L120.9764,41.7738 L120.9764,50.1548 L120.0554,50.1548 L120.0554,40.6448 Z M132.5652,40.6448 L138.6102,40.6448 L138.6102,41.4518 L133.4862,41.4518 L133.4862,44.8348 L138.2892,44.8348 L138.2892,45.6418 L133.4862,45.6418 L133.4862,49.3488 L138.8342,49.3488 L138.8342,50.1548 L132.5652,50.1548 L132.5652,40.6448 Z M140.8445,40.6448 L142.0315,40.6448 L148.0485,48.9728 L148.0765,48.9728 L148.0765,40.6448 L148.9985,40.6448 L148.9985,50.1548 L147.8115,50.1548 L141.7935,41.8278 L141.7655,41.8278 L141.7655,50.1548 L140.8445,50.1548 L140.8445,40.6448 Z M153.8987,41.4515 L150.5197,41.4515 L150.5197,40.6445 L158.1987,40.6445 L158.1987,41.4515 L154.8207,41.4515 L154.8207,50.1545 L153.8987,50.1545 L153.8987,41.4515 Z M163.616,48.3948 C163.858,48.7978 164.172,49.0988 164.558,49.2948 C164.944,49.4928 165.385,49.5908 165.878,49.5908 C166.185,49.5908 166.473,49.5458 166.743,49.4568 C167.013,49.3678 167.248,49.2418 167.449,49.0808 C167.648,48.9188 167.806,48.7248 167.923,48.4968 C168.039,48.2668 168.097,48.0108 168.097,47.7238 C168.097,47.3928 168.025,47.1188 167.881,46.9048 C167.737,46.6888 167.544,46.5128 167.302,46.3738 C167.059,46.2358 166.787,46.1168 166.485,46.0178 C166.182,45.9188 165.87,45.8208 165.55,45.7218 C165.228,45.6238 164.917,45.5118 164.614,45.3858 C164.311,45.2608 164.039,45.0978 163.798,44.8968 C163.555,44.6948 163.362,44.4418 163.218,44.1368 C163.074,43.8328 163.001,43.4578 163.001,43.0088 C163.001,42.5878 163.087,42.2138 163.26,41.8868 C163.432,41.5608 163.665,41.2878 163.958,41.0688 C164.251,40.8488 164.588,40.6838 164.97,40.5718 C165.352,40.4588 165.752,40.4038 166.171,40.4038 C166.71,40.4038 167.211,40.4958 167.672,40.6788 C168.133,40.8628 168.531,41.1688 168.866,41.5988 L168.07,42.1498 C167.837,41.8358 167.565,41.6008 167.253,41.4448 C166.941,41.2878 166.571,41.2088 166.143,41.2088 C165.845,41.2088 165.561,41.2478 165.291,41.3238 C165.021,41.3998 164.786,41.5108 164.586,41.6598 C164.386,41.8068 164.225,41.9928 164.104,42.2158 C163.984,42.4408 163.923,42.7048 163.923,43.0088 C163.923,43.4838 164.049,43.8488 164.3,44.1038 C164.551,44.3598 164.866,44.5608 165.242,44.7078 C165.619,44.8558 166.029,44.9858 166.471,45.0978 C166.913,45.2098 167.323,45.3598 167.699,45.5468 C168.076,45.7358 168.39,45.9988 168.642,46.3338 C168.893,46.6688 169.019,47.1328 169.019,47.7238 C169.019,48.1528 168.935,48.5348 168.768,48.8658 C168.6,49.1968 168.374,49.4768 168.09,49.7048 C167.806,49.9328 167.478,50.1058 167.106,50.2218 C166.734,50.3378 166.347,50.3968 165.948,50.3968 C165.296,50.3968 164.696,50.2878 164.146,50.0668 C163.597,49.8478 163.127,49.4788 162.736,48.9588 L163.616,48.3948 Z M171.1135,40.6448 L177.1585,40.6448 L177.1585,41.4518 L172.0345,41.4518 L172.0345,44.8348 L176.8375,44.8348 L176.8375,45.6418 L172.0345,45.6418 L172.0345,49.3488 L177.3825,49.3488 L177.3825,50.1548 L171.1135,50.1548 L171.1135,40.6448 Z M180.3142,44.8353 L182.2692,44.8353 C182.7522,44.8353 183.1462,44.7773 183.4482,44.6613 C183.7512,44.5453 183.9862,44.4013 184.1542,44.2313 C184.3212,44.0623 184.4352,43.8773 184.4962,43.6813 C184.5562,43.4833 184.5862,43.3043 184.5862,43.1443 C184.5862,42.9823 184.5562,42.8033 184.4962,42.6063 C184.4352,42.4093 184.3212,42.2263 184.1542,42.0553 C183.9862,41.8863 183.7512,41.7423 183.4482,41.6263 C183.1462,41.5093 182.7522,41.4513 182.2692,41.4513 L180.3142,41.4513 L180.3142,44.8353 Z M179.3932,40.6453 L181.9892,40.6453 C182.1202,40.6453 182.2962,40.6493 182.5202,40.6583 C182.7432,40.6673 182.9852,40.6943 183.2462,40.7393 C183.5072,40.7843 183.7722,40.8563 184.0422,40.9543 C184.3122,41.0533 184.5542,41.1953 184.7682,41.3843 C184.9822,41.5713 185.1592,41.8093 185.2982,42.0963 C185.4382,42.3823 185.5082,42.7313 185.5082,43.1443 C185.5082,43.6003 185.4262,43.9763 185.2632,44.2723 C185.1012,44.5673 184.8962,44.8073 184.6492,44.9903 C184.4022,45.1743 184.1302,45.3113 183.8332,45.3993 C183.5352,45.4893 183.2512,45.5523 182.9812,45.5883 L185.8572,50.1543 L184.8102,50.1543 L182.0312,45.6423 L180.3142,45.6423 L180.3142,50.1543 L179.3932,50.1543 L179.3932,40.6453 Z M186.3596,40.6448 L187.3506,40.6448 L190.5336,48.9868 L193.7456,40.6448 L194.7226,40.6448 L190.9666,50.1548 L190.0456,50.1548 L186.3596,40.6448 Z M196.035,50.1551 L196.035,40.6451 L196.956,40.6451 L196.956,50.1551 L196.035,50.1551 Z M207.8044,48.6644 C207.3294,49.2824 206.7804,49.7254 206.1574,49.9934 C205.5334,50.2624 204.8584,50.3964 204.1324,50.3964 C203.3784,50.3964 202.6874,50.2734 202.0594,50.0264 C201.4304,49.7804 200.8934,49.4364 200.4464,48.9924 C199.9994,48.5504 199.6504,48.0214 199.3994,47.4084 C199.1484,46.7954 199.0224,46.1264 199.0224,45.3994 C199.0224,44.6744 199.1484,44.0084 199.3994,43.3984 C199.6504,42.7894 199.9994,42.2634 200.4464,41.8204 C200.8934,41.3774 201.4304,41.0304 202.0594,40.7794 C202.6874,40.5284 203.3784,40.4034 204.1324,40.4034 C204.8024,40.4034 205.4294,40.5174 206.0104,40.7464 C206.5924,40.9744 207.1014,41.3564 207.5394,41.8934 L206.7854,42.4994 C206.4784,42.0514 206.0844,41.7254 205.6054,41.5184 C205.1264,41.3124 204.6354,41.2094 204.1324,41.2094 C203.4904,41.2094 202.9104,41.3164 202.3944,41.5314 C201.8784,41.7464 201.4374,42.0424 201.0754,42.4184 C200.7114,42.7944 200.4324,43.2374 200.2374,43.7484 C200.0414,44.2584 199.9444,44.8094 199.9444,45.3994 C199.9444,45.9904 200.0414,46.5424 200.2374,47.0524 C200.4324,47.5624 200.7114,48.0064 201.0754,48.3824 C201.4374,48.7584 201.8784,49.0534 202.3944,49.2684 C202.9104,49.4824 203.4904,49.5914 204.1324,49.5914 C204.3834,49.5914 204.6444,49.5614 204.9144,49.5034 C205.1844,49.4454 205.4474,49.3544 205.7034,49.2344 C205.9594,49.1144 206.2034,48.9624 206.4364,48.7784 C206.6684,48.5954 206.8734,48.3734 207.0514,48.1124 L207.8044,48.6644 Z M209.4939,40.6448 L215.5389,40.6448 L215.5389,41.4518 L210.4149,41.4518 L210.4149,44.8348 L215.2179,44.8348 L215.2179,45.6418 L210.4149,45.6418 L210.4149,49.3488 L215.7629,49.3488 L215.7629,50.1548 L209.4939,50.1548 L209.4939,40.6448 Z M218.0383,48.3948 C218.2803,48.7978 218.5943,49.0988 218.9813,49.2948 C219.3673,49.4928 219.8073,49.5908 220.3003,49.5908 C220.6073,49.5908 220.8953,49.5458 221.1653,49.4568 C221.4353,49.3678 221.6703,49.2418 221.8713,49.0808 C222.0713,48.9188 222.2293,48.7248 222.3453,48.4968 C222.4613,48.2668 222.5203,48.0108 222.5203,47.7238 C222.5203,47.3928 222.4483,47.1188 222.3043,46.9048 C222.1593,46.6888 221.9663,46.5128 221.7243,46.3738 C221.4823,46.2358 221.2093,46.1168 220.9073,46.0178 C220.6043,45.9188 220.2933,45.8208 219.9723,45.7218 C219.6513,45.6238 219.3393,45.5118 219.0363,45.3858 C218.7333,45.2608 218.4623,45.0978 218.2203,44.8968 C217.9773,44.6948 217.7843,44.4418 217.6403,44.1368 C217.4963,43.8328 217.4243,43.4578 217.4243,43.0088 C217.4243,42.5878 217.5103,42.2138 217.6823,41.8868 C217.8543,41.5608 218.0873,41.2878 218.3803,41.0688 C218.6733,40.8488 219.0113,40.6838 219.3923,40.5718 C219.7743,40.4588 220.1743,40.4038 220.5933,40.4038 C221.1333,40.4038 221.6333,40.4958 222.0943,40.6788 C222.5553,40.8628 222.9533,41.1688 223.2883,41.5988 L222.4923,42.1498 C222.2593,41.8358 221.9873,41.6008 221.6753,41.4448 C221.3633,41.2878 220.9933,41.2088 220.5653,41.2088 C220.2673,41.2088 219.9833,41.2478 219.7143,41.3238 C219.4433,41.3998 219.2083,41.5108 219.0083,41.6598 C218.8083,41.8068 218.6483,41.9928 218.5273,42.2158 C218.4063,42.4408 218.3453,42.7048 218.3453,43.0088 C218.3453,43.4838 218.4713,43.8488 218.7223,44.1038 C218.9743,44.3598 219.2883,44.5608 219.6653,44.7078 C220.0413,44.8558 220.4513,44.9858 220.8933,45.0978 C221.3353,45.2098 221.7453,45.3598 222.1213,45.5468 C222.4993,45.7358 222.8133,45.9988 223.0643,46.3338 C223.3163,46.6688 223.4413,47.1328 223.4413,47.7238 C223.4413,48.1528 223.3573,48.5348 223.1903,48.8658 C223.0223,49.1968 222.7973,49.4768 222.5133,49.7048 C222.2293,49.9328 221.9013,50.1058 221.5293,50.2218 C221.1563,50.3378 220.7693,50.3968 220.3703,50.3968 C219.7183,50.3968 219.1183,50.2878 218.5683,50.0668 C218.0193,49.8478 217.5493,49.4788 217.1593,48.9588 L218.0383,48.3948 Z" id="Recruitment-Services" fill="#158CC2"></path>
        <path d="M48.5852,17.181 C50.3822,17.181 51.8442,15.774 51.8442,14.045 C51.8442,12.316 50.3822,10.91 48.5852,10.91 C46.7882,10.91 45.3252,12.316 45.3252,14.045 C45.3252,15.774 46.7882,17.181 48.5852,17.181 Z M48.5852,8.202 C51.9342,8.202 54.6582,10.824 54.6582,14.045 C54.6582,17.267 51.9342,19.888 48.5852,19.888 C45.2362,19.888 42.5122,17.267 42.5122,14.045 C42.5122,10.824 45.2362,8.202 48.5852,8.202 Z M10.0368,17.5716 C11.8338,17.5716 13.2968,16.1646 13.2968,14.4356 C13.2968,12.7066 11.8338,11.3006 10.0368,11.3006 C8.2398,11.3006 6.7778,12.7066 6.7778,14.4356 C6.7778,16.1646 8.2398,17.5716 10.0368,17.5716 Z M10.0368,8.5926 C13.3858,8.5926 16.1098,11.2146 16.1098,14.4356 C16.1098,17.6576 13.3858,20.2776 10.0368,20.2776 C6.6878,20.2776 3.9638,17.6576 3.9638,14.4356 C3.9638,11.2146 6.6878,8.5926 10.0368,8.5926 Z M29.6487,10.3441 C31.8377,10.3441 33.6187,8.6311 33.6187,6.5261 C33.6187,4.4201 31.8377,2.7071 29.6487,2.7071 C27.4607,2.7071 25.6797,4.4201 25.6797,6.5261 C25.6797,8.6311 27.4607,10.3441 29.6487,10.3441 Z M29.6487,0.0001 C33.3897,0.0001 36.4327,2.9271 36.4327,6.5261 C36.4327,10.1241 33.3897,13.0511 29.6487,13.0511 C25.9087,13.0511 22.8657,10.1241 22.8657,6.5261 C22.8657,2.9271 25.9087,0.0001 29.6487,0.0001 Z" id="Shape" fill="#158CC2"></path>
        <path d="M54.4558,32.8489 C53.9248,33.3209 53.2158,33.6029 52.5118,33.7639 C51.5098,33.9949 44.3918,33.9209 44.3918,33.9209 C44.3918,33.9209 41.3718,33.5359 41.1458,35.8399 L41.1468,44.8489 C41.1868,45.8899 41.1238,47.0059 41.0898,48.0429 C41.0608,48.9129 40.6988,49.7869 40.0658,50.3769 C39.0398,51.3349 37.3208,51.2929 36.2718,50.3749 C35.3478,49.5669 35.1928,48.2379 35.1928,47.1049 C35.1928,47.0359 35.1948,29.7239 35.1948,29.7239 C35.1948,28.6269 35.4278,27.8709 35.9058,27.4149 C36.7908,26.5689 38.7478,26.4119 41.1458,26.3949 L41.1458,33.4739 C41.7948,32.9859 42.8068,32.6319 44.3918,32.7139 L44.3918,26.4069 C44.9358,26.4069 45.4878,26.4039 46.0298,26.3999 C49.4078,26.3749 53.4748,26.3519 54.7988,27.6179 C55.2778,28.0749 55.5108,28.7639 55.5108,29.7239 L55.5108,29.7779 C55.5608,31.1689 55.2158,32.1729 54.4558,32.8489 M22.8568,27.4149 C23.3348,27.8709 23.5668,28.6269 23.5668,29.7239 L23.5668,47.0309 C23.5668,47.0309 23.7128,51.0989 20.5468,51.0989 C18.5358,51.0989 17.8568,49.6549 17.6758,47.8769 C17.5898,47.0389 17.5698,46.0289 17.6158,44.8489 L17.6158,36.2169 C17.6158,36.2169 17.6038,34.6109 15.9978,34.0969 C15.1988,33.8409 14.3828,33.9209 14.3828,33.9209 C14.3828,33.9209 14.3778,33.9199 14.3708,33.9179 L14.3708,33.9209 C14.3708,33.9209 8.5598,33.9759 7.9998,33.9479 C6.8048,33.8879 5.1818,33.6269 4.3068,32.8489 C3.5468,32.1729 3.2008,31.1689 3.2508,29.7779 L3.2518,29.7239 C3.2518,28.7639 3.4848,28.0749 3.9628,27.6179 C5.1078,26.5239 8.4448,26.3929 11.3578,26.3929 C11.8148,26.3929 12.2748,26.3969 12.7328,26.3999 C13.2748,26.4039 13.8268,26.4069 14.3708,26.4069 L14.3708,32.7139 C15.9528,32.6309 16.9658,32.9799 17.6158,33.4649 L17.6168,26.3949 C20.0138,26.4119 21.9708,26.5689 22.8568,27.4149 M58.7568,29.6979 C58.7508,27.8999 58.1888,26.4539 57.0858,25.4019 C54.8028,23.2199 50.2368,23.2479 46.0058,23.2769 C45.4718,23.2809 44.9308,23.2819 44.3918,23.2839 L44.3918,22.7259 C44.3918,14.8619 34.7888,14.8919 30.9208,14.7639 C29.9138,14.7309 28.9358,14.7319 27.9308,14.7629 C23.8328,14.8919 14.3708,14.8499 14.3708,22.7259 L14.3708,23.2839 C13.8288,23.2819 13.2898,23.2809 12.7568,23.2769 C8.5218,23.2469 3.9588,23.2199 1.6758,25.4019 C0.5728,26.4539 0.0108,27.8999 0.0058,29.6979 C-0.0712,32.0149 0.6408,33.8529 2.1218,35.1589 C3.4658,36.3449 5.3588,36.8159 6.9098,36.9899 C8.1858,37.1319 12.1708,37.0439 12.1708,37.0439 L14.3708,37.0439 L14.3708,44.7619 C14.3238,45.9949 14.3408,47.0699 14.4258,48.0099 C14.6228,50.1809 15.1838,51.6389 16.1718,52.6589 C18.3438,54.8989 22.6328,54.7079 24.8698,52.6609 C26.2758,51.3739 26.9288,49.4679 26.8128,46.9949 L26.8128,29.7239 C26.8128,27.7519 26.2678,26.2719 25.1438,25.1989 C23.4158,23.5489 20.7508,23.2949 17.6168,23.2719 L17.6168,22.7259 C17.6168,19.2899 20.5148,17.9329 27.9518,17.8859 C28.9328,17.8789 29.9148,17.8799 30.8958,17.8869 C38.1758,17.9399 41.1458,19.3419 41.1458,22.7259 L41.1458,23.2719 C38.0108,23.2949 35.3458,23.5489 33.6188,25.1989 C32.4948,26.2719 31.9488,27.7519 31.9488,29.7239 L31.9488,46.9949 C31.8328,49.4679 32.4868,51.3739 33.8918,52.6609 C36.0678,54.6519 40.4528,54.8629 42.5908,52.6589 C43.5578,51.6609 44.1158,50.2439 44.3238,48.1489 C44.4198,47.1749 44.4408,46.0549 44.3918,44.7619 L44.3918,37.0439 L47.5918,37.0439 C47.5918,37.0439 51.1208,37.0729 52.3348,36.8789 C53.7518,36.6539 55.4428,36.1659 56.6408,35.1589 C58.1528,33.8869 58.8328,32.0149 58.7568,29.6979" id="Fill-43" fill="#163963"></path>
    </g>
</svg>